<?xml version="1.0" encoding="UTF-8"?>
<mxfile host="app.diagrams.net" modified="2025-06-01T12:10:00.000Z" agent="Mozilla/5.0" etag="abcd2" version="20.0.0" type="device">
  <diagram id="ecommerce_star_schema_v2" name="Page-1">
    <mxGraphModel dx="1370" dy="838" grid="1" gridSize="10" guides="1" tooltips="1" connect="1" arrows="1" fold="1" page="1" pageScale="1" pageWidth="827" pageHeight="1169" math="0" shadow="0">
      <root>
        <mxCell id="0"/>
        <mxCell id="1" parent="0"/>
        
        <!-- Fact Table: fact_sales -->
        <mxCell id="2" value="fact_sales&#10;- sales_id (PK)&#10;- order_id&#10;- customer_id&#10;- product_id&#10;- seller_id&#10;- date_id&#10;- payment_value&#10;- review_score&#10;- quantity&#10;- total_sale_amount" style="rounded=1;whiteSpace=wrap;fillColor=#A9CCE3;fontSize=12;" vertex="1" parent="1">
          <mxGeometry x="380" y="260" width="180" height="180" as="geometry"/>
        </mxCell>

        <!-- Dimension Tables -->
        <mxCell id="3" value="dim_customer&#10;- customer_id (PK)&#10;- customer_unique_id&#10;- customer_city&#10;- customer_state" style="rounded=1;whiteSpace=wrap;fillColor=#ABEBC6;fontSize=12;" vertex="1" parent="1">
          <mxGeometry x="120" y="60" width="160" height="120" as="geometry"/>
        </mxCell>
        <mxCell id="4" value="dim_product&#10;- product_id (PK)&#10;- product_category_name" style="rounded=1;whiteSpace=wrap;fillColor=#ABEBC6;fontSize=12;" vertex="1" parent="1">
          <mxGeometry x="680" y="60" width="160" height="80" as="geometry"/>
        </mxCell>
        <mxCell id="5" value="dim_seller&#10;- seller_id (PK)&#10;- seller_city&#10;- seller_state" style="rounded=1;whiteSpace=wrap;fillColor=#ABEBC6;fontSize=12;" vertex="1" parent="1">
          <mxGeometry x="120" y="460" width="160" height="100" as="geometry"/>
        </mxCell>
        <mxCell id="6" value="dim_date&#10;- date_id (PK)&#10;- day&#10;- month&#10;- year&#10;- quarter" style="rounded=1;whiteSpace=wrap;fillColor=#ABEBC6;fontSize=12;" vertex="1" parent="1">
          <mxGeometry x="680" y="460" width="160" height="120" as="geometry"/>
        </mxCell>
        <mxCell id="7" value="dim_payment (optional)&#10;- order_id (PK)&#10;- payment_type&#10;- payment_installments" style="rounded=1;whiteSpace=wrap;fillColor=#ABEBC6;fontSize=12;" vertex="1" parent="1">
          <mxGeometry x="380" y="460" width="160" height="100" as="geometry"/>
        </mxCell>

        <!-- Edges (Arrows) from fact_sales to dimensions with labels-->
        <mxCell id="8" style="endArrow=block;endFill=1;strokeColor=#000000;fontSize=10;" edge="1" parent="1" source="2" target="3" value="FK: customer_id">
          <mxGeometry relative="1" as="geometry"/>
        </mxCell>
        <mxCell id="9" style="endArrow=block;endFill=1;strokeColor=#000000;fontSize=10;" edge="1" parent="1" source="2" target="4" value="FK: product_id">
          <mxGeometry relative="1" as="geometry"/>
        </mxCell>
        <mxCell id="10" style="endArrow=block;endFill=1;strokeColor=#000000;fontSize=10;" edge="1" parent="1" source="2" target="5" value="FK: seller_id">
          <mxGeometry relative="1" as="geometry"/>
        </mxCell>
        <mxCell id="11" style="endArrow=block;endFill=1;strokeColor=#000000;fontSize=10;" edge="1" parent="1" source="2" target="6" value="FK: date_id">
          <mxGeometry relative="1" as="geometry"/>
        </mxCell>
        <mxCell id="12" style="endArrow=block;endFill=1;strokeColor=#000000;fontSize=10;" edge="1" parent="1" source="2" target="7" value="FK: order_id">
          <mxGeometry relative="1" as="geometry"/>
        </mxCell>

      </root>
    </mxGraphModel>
  </diagram>
</mxfile>
